HIERARCHY
ROOT Hips
{
	OFFSET 0.053599 88.859886 3.107447
	CHANNELS 6 Xposition Yposition Zposition Zrotation Yrotation Xrotation 
	JOINT Spine
	{
		OFFSET -0.000000 8.814246 -2.080107
		CHANNELS 3 Zrotation Yrotation Xrotation
		JOINT Spine1
		{
			OFFSET 0.000000 8.844141 0.000000
			CHANNELS 3 Zrotation Yrotation Xrotation
			JOINT Spine2
			{
				OFFSET -0.000000 11.682268 0.000000
				CHANNELS 3 Zrotation Yrotation Xrotation
				JOINT Spine3
				{
					OFFSET 0.000000 11.746700 0.000000
					CHANNELS 3 Zrotation Yrotation Xrotation
					JOINT Neck
					{
						OFFSET -0.000000 17.658264 -0.000000
						CHANNELS 3 Zrotation Yrotation Xrotation
						JOINT Neck1
						{
							OFFSET -0.000000 5.101515 -0.000000
							CHANNELS 3 Zrotation Yrotation Xrotation
							JOINT Head
							{
								OFFSET 0.000000 5.101515 0.000000
								CHANNELS 3 Zrotation Yrotation Xrotation
								JOINT HeadEnd
								{
									OFFSET 0.000000 11.655085 0.000000
									CHANNELS 3 Zrotation Yrotation Xrotation
									End Site
									{
										OFFSET 0.000000 0.000000 0.000000
									}
								}
							}
						}
					}
					JOINT RightShoulder
					{
						OFFSET -2.625389 11.175210 0.000000
						CHANNELS 3 Zrotation Yrotation Xrotation
						JOINT RightArm
						{
							OFFSET -0.000000 10.434715 -0.000000
							CHANNELS 3 Zrotation Yrotation Xrotation
							JOINT RightForeArm
							{
								OFFSET -0.000000 29.628420 0.000000
								CHANNELS 3 Zrotation Yrotation Xrotation
								JOINT RightHand
								{
									OFFSET -0.000000 22.857611 0.000000
									CHANNELS 3 Zrotation Yrotation Xrotation
									JOINT RightHandThumb1
									{
										OFFSET -2.867323 3.959563 2.944291
										CHANNELS 3 Zrotation Yrotation Xrotation
										JOINT RightHandThumb2
										{
											OFFSET 0.000000 3.350399 0.000000
											CHANNELS 3 Zrotation Yrotation Xrotation
											JOINT RightHandThumb3
											{
												OFFSET 0.000000 3.756509 -0.000000
												CHANNELS 3 Zrotation Yrotation Xrotation
												JOINT RightHandThumb4
												{
													OFFSET 0.000000 3.147345 0.000000
													CHANNELS 3 Zrotation Yrotation Xrotation
													End Site
													{
														OFFSET 0.000000 0.000000 0.000000
													}
												}
											}
										}
									}
									JOINT RightHandIndex1
									{
										OFFSET -0.086752 10.030893 2.345280
										CHANNELS 3 Zrotation Yrotation Xrotation
										JOINT RightHandIndex2
										{
											OFFSET -0.000000 4.061090 0.000000
											CHANNELS 3 Zrotation Yrotation Xrotation
											JOINT RightHandIndex3
											{
												OFFSET -0.000000 3.248873 0.000000
												CHANNELS 3 Zrotation Yrotation Xrotation
												JOINT RightHandIndex4
												{
													OFFSET 0.000000 2.639709 -0.000000
													CHANNELS 3 Zrotation Yrotation Xrotation
													End Site
													{
														OFFSET 0.000000 0.000000 0.000000
													}
												}
											}
										}
									}
									JOINT RightHandMiddle1
									{
										OFFSET 0.104102 9.502952 0.006768
										CHANNELS 3 Zrotation Yrotation Xrotation
										JOINT RightHandMiddle2
										{
											OFFSET 0.000000 4.568727 0.000000
											CHANNELS 3 Zrotation Yrotation Xrotation
											JOINT RightHandMiddle3
											{
												OFFSET 0.000000 3.654981 -0.000000
												CHANNELS 3 Zrotation Yrotation Xrotation
												JOINT RightHandMiddle4
												{
													OFFSET -0.000000 2.741236 -0.000000
													CHANNELS 3 Zrotation Yrotation Xrotation
													End Site
													{
														OFFSET 0.000000 0.000000 0.000000
													}
												}
											}
										}
									}
									JOINT RightHandRing1
									{
										OFFSET 0.086752 8.921708 -2.267442
										CHANNELS 3 Zrotation Yrotation Xrotation
										JOINT RightHandRing2
										{
											OFFSET -0.000000 4.061090 0.000000
											CHANNELS 3 Zrotation Yrotation Xrotation
											JOINT RightHandRing3
											{
												OFFSET 0.000000 3.654981 -0.000000
												CHANNELS 3 Zrotation Yrotation Xrotation
												JOINT RightHandRing4
												{
													OFFSET 0.000000 2.741236 -0.000000
													CHANNELS 3 Zrotation Yrotation Xrotation
													End Site
													{
														OFFSET 0.000000 0.000000 0.000000
													}
												}
											}
										}
									}
									JOINT RightHandPinky1
									{
										OFFSET -0.173504 7.976997 -4.467199
										CHANNELS 3 Zrotation Yrotation Xrotation
										JOINT RightHandPinky2
										{
											OFFSET 0.000000 3.350399 -0.000000
											CHANNELS 3 Zrotation Yrotation Xrotation
											JOINT RightHandPinky3
											{
												OFFSET -0.000000 2.842763 0.000000
												CHANNELS 3 Zrotation Yrotation Xrotation
												JOINT RightHandPinky4
												{
													OFFSET -0.000000 2.639709 0.000000
													CHANNELS 3 Zrotation Yrotation Xrotation
													End Site
													{
														OFFSET 0.000000 0.000000 0.000000
													}
												}
											}
										}
									}
									JOINT RightForeArmEnd
									{
										OFFSET 0.000000 0.000000 0.000000
										CHANNELS 3 Zrotation Yrotation Xrotation
										End Site
										{
											OFFSET 0.000000 0.000000 0.000000
										}
									}
								}
								JOINT RightArmEnd
								{
									OFFSET 0.000000 0.000000 0.000000
									CHANNELS 3 Zrotation Yrotation Xrotation
									End Site
									{
										OFFSET 0.000000 0.000000 0.000000
									}
								}
							}
						}
					}
					JOINT LeftShoulder
					{
						OFFSET 2.625389 11.175210 0.000000
						CHANNELS 3 Zrotation Yrotation Xrotation
						JOINT LeftArm
						{
							OFFSET 0.000000 10.813635 -0.000000
							CHANNELS 3 Zrotation Yrotation Xrotation
							JOINT LeftForeArm
							{
								OFFSET 0.000000 28.724781 0.000000
								CHANNELS 3 Zrotation Yrotation Xrotation
								JOINT LeftHand
								{
									OFFSET 0.644384 25.716167 -0.328871
									CHANNELS 3 Zrotation Yrotation Xrotation
									JOINT LeftHandThumb1
									{
										OFFSET 2.867323 3.959563 2.944291
										CHANNELS 3 Zrotation Yrotation Xrotation
										JOINT LeftHandThumb2
										{
											OFFSET 0.000000 3.350399 0.000000
											CHANNELS 3 Zrotation Yrotation Xrotation
											JOINT LeftHandThumb3
											{
												OFFSET -0.000000 3.756509 0.000000
												CHANNELS 3 Zrotation Yrotation Xrotation
												JOINT LeftHandThumb4
												{
													OFFSET -0.000000 3.100000 0.000000
													CHANNELS 3 Zrotation Yrotation Xrotation
													End Site
													{
														OFFSET 0.000000 0.000000 0.000000
													}
												}
											}
										}
									}
									JOINT LeftHandIndex1
									{
										OFFSET 0.086752 10.030893 2.345280
										CHANNELS 3 Zrotation Yrotation Xrotation
										JOINT LeftHandIndex2
										{
											OFFSET -0.000000 4.061090 -0.000000
											CHANNELS 3 Zrotation Yrotation Xrotation
											JOINT LeftHandIndex3
											{
												OFFSET 0.000000 3.248873 -0.000000
												CHANNELS 3 Zrotation Yrotation Xrotation
												JOINT LeftHandIndex4
												{
													OFFSET 0.000000 2.639709 -0.000000
													CHANNELS 3 Zrotation Yrotation Xrotation
													End Site
													{
														OFFSET 0.000000 0.000000 0.000000
													}
												}
											}
										}
									}
									JOINT LeftHandMiddle1
									{
										OFFSET -0.104102 9.502952 0.006768
										CHANNELS 3 Zrotation Yrotation Xrotation
										JOINT LeftHandMiddle2
										{
											OFFSET -0.000000 4.568727 -0.000000
											CHANNELS 3 Zrotation Yrotation Xrotation
											JOINT LeftHandMiddle3
											{
												OFFSET 0.000000 3.654981 0.000000
												CHANNELS 3 Zrotation Yrotation Xrotation
												JOINT LeftHandMiddle4
												{
													OFFSET 0.000000 2.741236 -0.000000
													CHANNELS 3 Zrotation Yrotation Xrotation
													End Site
													{
														OFFSET 0.000000 0.000000 0.000000
													}
												}
											}
										}
									}
									JOINT LeftHandRing1
									{
										OFFSET -0.086752 8.921708 -2.267442
										CHANNELS 3 Zrotation Yrotation Xrotation
										JOINT LeftHandRing2
										{
											OFFSET 0.000000 4.061090 0.000000
											CHANNELS 3 Zrotation Yrotation Xrotation
											JOINT LeftHandRing3
											{
												OFFSET 0.000000 3.654981 0.000000
												CHANNELS 3 Zrotation Yrotation Xrotation
												JOINT LeftHandRing4
												{
													OFFSET 0.000000 2.741236 0.000000
													CHANNELS 3 Zrotation Yrotation Xrotation
													End Site
													{
														OFFSET 0.000000 0.000000 0.000000
													}
												}
											}
										}
									}
									JOINT LeftHandPinky1
									{
										OFFSET 0.173504 7.976997 -4.467199
										CHANNELS 3 Zrotation Yrotation Xrotation
										JOINT LeftHandPinky2
										{
											OFFSET -0.000000 3.350399 -0.000000
											CHANNELS 3 Zrotation Yrotation Xrotation
											JOINT LeftHandPinky3
											{
												OFFSET 0.000000 2.842763 0.000000
												CHANNELS 3 Zrotation Yrotation Xrotation
												JOINT LeftHandPinky4
												{
													OFFSET -0.000000 2.639709 -0.000000
													CHANNELS 3 Zrotation Yrotation Xrotation
													End Site
													{
														OFFSET 0.000000 0.000000 0.000000
													}
												}
											}
										}
									}
									JOINT LeftForeArmEnd
									{
										OFFSET 0.000000 0.000000 0.000000
										CHANNELS 3 Zrotation Yrotation Xrotation
										End Site
										{
											OFFSET 0.000000 0.000000 0.000000
										}
									}
								}
								JOINT LeftArmEnd
								{
									OFFSET 0.000000 0.000000 0.000000
									CHANNELS 3 Zrotation Yrotation Xrotation
									End Site
									{
										OFFSET 0.000000 0.000000 0.000000
									}
								}
							}
						}
					}
				}
			}
		}
	}
	JOINT RightUpLeg
	{
		OFFSET -11.289943 0.000000 0.000000
		CHANNELS 3 Zrotation Yrotation Xrotation
		JOINT RightLeg
		{
			OFFSET 0.000000 -38.200325 0.000000
			CHANNELS 3 Zrotation Yrotation Xrotation
			JOINT RightFoot
			{
				OFFSET -0.000000 -39.900856 -0.000000
				CHANNELS 3 Zrotation Yrotation Xrotation
				JOINT RightToeBase
				{
					OFFSET 0.000000 0.000000 15.261641
					CHANNELS 3 Zrotation Yrotation Xrotation
					JOINT RightToeBaseEnd
					{
						OFFSET 0.000000 0.000000 7.370709
						CHANNELS 3 Zrotation Yrotation Xrotation
						End Site
						{
							OFFSET 0.000000 0.000000 0.000000
						}
					}
				}
				JOINT RightLegEnd
				{
					OFFSET 0.000000 0.000000 0.000000
					CHANNELS 3 Zrotation Yrotation Xrotation
					End Site
					{
						OFFSET 0.000000 0.000000 0.000000
					}
				}
			}
			JOINT RightUpLegEnd
			{
				OFFSET 0.000000 0.000000 0.000000
				CHANNELS 3 Zrotation Yrotation Xrotation
				End Site
				{
					OFFSET 0.000000 0.000000 0.000000
				}
			}
		}
	}
	JOINT LeftUpLeg
	{
		OFFSET 11.315661 -0.000000 0.000000
		CHANNELS 3 Zrotation Yrotation Xrotation
		JOINT LeftLeg
		{
			OFFSET -0.000000 -38.200325 -0.000000
			CHANNELS 3 Zrotation Yrotation Xrotation
			JOINT LeftFoot
			{
				OFFSET 0.000000 -39.900856 -0.000000
				CHANNELS 3 Zrotation Yrotation Xrotation
				JOINT LeftToeBase
				{
					OFFSET -0.000000 -0.000000 15.261641
					CHANNELS 3 Zrotation Yrotation Xrotation
					JOINT LeftToeBaseEnd
					{
						OFFSET 0.000000 -0.000000 7.539996
						CHANNELS 3 Zrotation Yrotation Xrotation
						End Site
						{
							OFFSET 0.000000 0.000000 0.000000
						}
					}
				}
				JOINT LeftLegEnd
				{
					OFFSET 0.000000 0.000000 0.000000
					CHANNELS 3 Zrotation Yrotation Xrotation
					End Site
					{
						OFFSET 0.000000 0.000000 0.000000
					}
				}
			}
			JOINT LeftUpLegEnd
			{
				OFFSET 0.000000 0.000000 0.000000
				CHANNELS 3 Zrotation Yrotation Xrotation
				End Site
				{
					OFFSET 0.000000 0.000000 0.000000
				}
			}
		}
	}
}
MOTION
Frames: 4
Frame Time: 0.016667
-0.485536 87.608864 2.434887 0.586107 1.440800 -11.056118 1.068809 0.165056 7.387621 0.619085 -0.001143 1.877212 -0.385032 0.597484 6.138979 -1.109948 0.485737 5.249022 0.218313 0.185848 3.953324 0.141777 0.551855 -3.570176 -0.296206 -0.963052 -21.625019 0.000000 0.000000 0.000000 92.433456 -0.888189 7.597515 66.125313 -9.642003 -0.097697 -0.670631 20.075741 57.093555 6.200777 18.128557 -6.153080 8.897363 -1.637558 40.580414 -0.000012 -0.000002 -21.723831 0.000019 0.000055 -14.889489 -0.000002 0.000012 -0.000020 5.062295 0.077531 -1.201084 3.836395 -0.039054 0.174968 3.650190 -0.013680 0.153880 -0.000009 0.000045 0.000001 4.632791 0.022774 -5.146741 3.472039 -0.030611 0.063823 3.448241 -0.010395 0.070565 -0.000004 -0.000031 0.000009 7.338964 -0.050997 -10.523782 4.109637 0.051756 -0.151677 4.122895 0.025953 -0.114447 -0.000032 -0.000211 0.000005 10.004858 -0.044056 -17.056866 5.210276 0.145245 -0.345598 5.210065 0.034290 -0.296026 -0.000471 0.000010 -0.000032 0.000000 0.000000 0.000000 0.000000 0.000000 0.000000 -89.407639 0.262737 1.295396 -74.062370 -3.680451 -9.879791 -0.010155 -19.061913 86.868820 -12.755590 -23.460642 -0.241589 -7.342807 1.371771 41.258766 0.000024 0.000020 -18.170288 -0.000015 -0.000008 -12.617158 0.001783 0.000024 0.000994 1.349575 0.115583 3.418683 -1.296749 -0.046055 -0.184693 -1.409461 -0.023895 -0.168029 -0.000004 -0.001033 -0.000025 -1.050128 0.059960 -2.311996 -1.686662 -0.026846 -0.094569 -1.549747 -0.006174 -0.073614 -0.000808 -0.000021 -0.000083 -7.505992 -0.019636 -10.499121 -4.124529 0.045512 0.074657 -3.670095 0.000023 0.058658 -0.000093 0.000010 0.000003 -11.584970 -0.035239 -19.501455 -6.984578 0.063998 0.279190 -7.041067 0.002693 0.198872 -0.000126 -0.000007 -0.000047 0.000000 0.000000 0.000000 0.000000 0.000000 0.000000 -2.246563 -11.074351 16.415388 -0.060133 -0.702024 4.082828 -1.574519 -8.641530 17.121811 -1.244199 0.780553 -17.994114 0.000000 0.000000 0.000000 0.000000 0.000000 0.000000 0.000000 0.000000 0.000000 -1.565593 -4.064151 10.916245 0.048572 0.310753 9.219334 4.045639 -1.098638 16.825939 0.083545 -0.427809 -20.213741 0.000000 0.000000 0.000000 0.000000 0.000000 0.000000 0.000000 0.000000 0.000000 
-0.492585 87.607933 2.439342 0.578138 1.490486 -11.055637 1.070150 0.166241 7.392099 0.605186 -0.002002 1.878385 -0.371826 0.602021 6.135316 -1.107539 0.488549 5.264294 0.264629 0.149218 3.976736 0.145436 0.552491 -3.536899 -0.293737 -0.961887 -21.647038 0.000000 0.000000 0.000000 92.391434 -0.888312 7.568798 65.927872 -9.591207 -0.079542 -0.702509 20.079731 58.026253 6.710640 18.442966 -5.774444 9.011502 -1.650163 40.527798 -0.000012 -0.000003 -22.005032 0.000019 0.000054 -15.083094 -0.000002 0.000012 -0.000020 5.683596 0.077400 -1.239886 4.123701 -0.039407 0.170149 3.940685 -0.014176 0.148998 -0.000009 0.000045 0.000000 5.226881 0.022281 -5.160728 3.756118 -0.030767 0.061504 3.735861 -0.010406 0.068656 -0.000005 -0.000031 0.000009 7.902819 -0.050391 -10.507617 4.411037 0.051781 -0.146734 4.423625 0.025863 -0.110752 -0.000032 -0.000192 0.000005 10.494503 -0.043575 -16.997347 5.495429 0.145309 -0.331181 5.495236 0.034099 -0.283810 -0.000492 0.000010 -0.000033 0.000000 0.000000 0.000000 0.000000 0.000000 0.000000 -89.366188 0.249475 1.269076 -73.927536 -3.813959 -9.911416 -0.009758 -19.131186 86.825951 -13.306979 -23.220835 -0.220556 -7.427172 1.383059 41.218857 0.000023 0.000020 -18.378386 -0.000011 -0.000008 -12.760736 0.001769 0.000025 0.001001 0.910633 0.115376 3.297921 -1.367174 -0.047697 -0.187818 -1.477481 -0.025395 -0.169689 -0.000004 -0.001079 -0.000025 -1.463195 0.059980 -2.414260 -1.760112 -0.027324 -0.095598 -1.623493 -0.006614 -0.074665 -0.000791 -0.000022 -0.000081 -7.886724 -0.019912 -10.577045 -4.233097 0.046553 0.077432 -3.775193 0.000695 0.060256 -0.000105 0.000010 0.000003 -11.936143 -0.035710 -19.544653 -7.112873 0.067184 0.285919 -7.171385 0.005255 0.202693 -0.000113 -0.000007 -0.000047 0.000000 0.000000 0.000000 0.000000 0.000000 0.000000 -2.243801 -11.100029 16.424971 -0.060263 -0.700528 4.089783 -1.570200 -8.659046 17.101067 -1.245909 0.783647 -17.982227 0.000000 0.000000 0.000000 0.000000 0.000000 0.000000 0.000000 0.000000 0.000000 -1.562423 -4.061891 10.901065 0.048922 0.312828 9.255182 4.042969 -1.133014 16.806770 0.084118 -0.432117 -20.200033 0.000000 0.000000 0.000000 0.000000 0.000000 0.000000 0.000000 0.000000 0.000000 
-0.498752 87.606812 2.445306 0.574845 1.545846 -11.052608 1.066505 0.166574 7.391646 0.587450 -0.002771 1.869687 -0.359347 0.603113 6.140510 -1.103042 0.490223 5.277186 0.327206 0.107752 4.027452 0.150748 0.556826 -3.492460 -0.287853 -0.958208 -21.675806 0.000000 0.000000 0.000000 92.352707 -0.890633 7.542122 65.714882 -9.537216 -0.022736 -0.735959 20.102169 58.840015 7.157346 18.647467 -5.515963 9.123104 -1.662535 40.475788 -0.000011 -0.000003 -22.281771 0.000018 0.000054 -15.274973 -0.000002 0.000012 -0.000020 6.294719 0.077216 -1.275251 4.403963 -0.039864 0.164232 4.226705 -0.014782 0.143316 -0.000008 0.000045 0.000000 5.807020 0.021797 -5.171288 4.034522 -0.030963 0.058803 4.018097 -0.010441 0.066563 -0.000005 -0.000031 0.000009 8.436049 -0.049757 -10.479210 4.705161 0.051812 -0.141463 4.715952 0.025715 -0.106862 -0.000032 -0.000149 0.000005 10.939199 -0.043314 -16.917562 5.768407 0.145395 -0.316219 5.768595 0.033853 -0.271521 -0.000510 0.000010 -0.000033 0.000000 0.000000 0.000000 0.000000 0.000000 0.000000 -89.327446 0.237302 1.253483 -73.750519 -3.862282 -9.919809 -0.013673 -19.161648 86.660866 -13.642883 -22.826113 -0.345363 -7.498950 1.392879 41.184860 0.000022 0.000020 -18.553486 -0.000006 -0.000008 -12.881427 0.001753 0.000025 0.001008 0.535704 0.115172 3.194954 -1.422713 -0.049641 -0.192835 -1.530691 -0.027190 -0.173089 -0.000003 -0.001106 -0.000025 -1.806370 0.059979 -2.500141 -1.817775 -0.027925 -0.097357 -1.680689 -0.007168 -0.076356 -0.000778 -0.000022 -0.000079 -8.175519 -0.020094 -10.634505 -4.314471 0.047868 0.081614 -3.854779 0.001549 0.062809 -0.000119 0.000009 0.000003 -12.188057 -0.036014 -19.558126 -7.206377 0.070994 0.297460 -7.266284 0.008312 0.210116 -0.000100 -0.000007 -0.000047 0.000000 0.000000 0.000000 0.000000 0.000000 0.000000 -2.245943 -11.121161 16.436335 -0.060530 -0.698615 4.095257 -1.564801 -8.669106 17.075539 -1.247422 0.786315 -17.968903 0.000000 0.000000 0.000000 0.000000 0.000000 0.000000 0.000000 0.000000 0.000000 -1.561347 -4.055445 10.886509 0.049348 0.315976 9.282489 4.037460 -1.175459 16.789553 0.085570 -0.436790 -20.182917 0.000000 0.000000 0.000000 0.000000 0.000000 0.000000 0.000000 0.000000 0.000000 
-0.503988 87.605553 2.452642 0.576818 1.608712 -11.044711 1.057578 0.166583 7.385252 0.565852 -0.003241 1.849480 -0.349741 0.602272 6.155453 -1.097838 0.491174 5.286976 0.408498 0.059336 4.102779 0.157383 0.562558 -3.439524 -0.278544 -0.952748 -21.710733 0.000000 0.000000 0.000000 92.317062 -0.896571 7.517894 65.491013 -9.518870 0.074310 -0.769183 20.131573 59.442879 7.506841 18.706841 -5.433300 9.227102 -1.674395 40.426311 -0.000010 -0.000002 -22.542269 0.000018 0.000054 -15.457498 -0.000002 0.000012 -0.000020 6.869284 0.077055 -1.310966 4.659253 -0.040581 0.158100 4.490294 -0.015639 0.137534 -0.000008 0.000044 -0.000000 6.348098 0.021374 -5.181603 4.289241 -0.031272 0.056048 4.276837 -0.010578 0.064570 -0.000006 -0.000031 0.000009 8.915857 -0.049087 -10.437650 4.974033 0.051952 -0.136319 4.981882 0.025587 -0.103161 -0.000031 -0.000085 0.000005 11.320210 -0.043231 -16.814743 6.012614 0.145797 -0.302088 6.013652 0.033791 -0.260423 -0.000521 0.000010 -0.000034 0.000000 0.000000 0.000000 0.000000 0.000000 0.000000 -89.291290 0.228047 1.250915 -73.539452 -3.796327 -9.904719 -0.022643 -19.142349 86.330597 -13.710855 -22.310110 -0.652824 -7.555528 1.400964 41.157951 0.000022 0.000020 -18.689222 -0.000002 -0.000009 -12.974986 0.001737 0.000025 0.001006 0.239378 0.115005 3.107630 -1.457557 -0.051837 -0.199502 -1.563523 -0.029209 -0.178101 -0.000003 -0.001114 -0.000025 -2.066255 0.059958 -2.568430 -1.854169 -0.028630 -0.099727 -1.715541 -0.007815 -0.078611 -0.000769 -0.000022 -0.000079 -8.361867 -0.020164 -10.665020 -4.362801 0.049422 0.087108 -3.903087 0.002562 0.066263 -0.000135 0.000009 0.000003 -12.331978 -0.036018 -19.533089 -7.260465 0.075316 0.313636 -7.320442 0.011739 0.221045 -0.000083 -0.000007 -0.000047 0.000000 0.000000 0.000000 0.000000 0.000000 0.000000 -2.253092 -11.138046 16.447556 -0.060903 -0.696364 4.097445 -1.557092 -8.672797 17.046059 -1.248571 0.788436 -17.955721 0.000000 0.000000 0.000000 0.000000 0.000000 0.000000 0.000000 0.000000 0.000000 -1.563663 -4.048161 10.869226 0.049882 0.320216 9.300698 4.028996 -1.228225 16.775589 0.087840 -0.441488 -20.163837 0.000000 0.000000 0.000000 0.000000 0.000000 0.000000 0.000000 0.000000 0.000000 
